<?xml version="1.0" encoding="iso-8859-1"?>
<!-- Generator: Adobe Illustrator 19.0.0, SVG Export Plug-In . SVG Version: 6.00 Build 0)  -->
<svg version="1.1" id="Capa_1" xmlns="http://www.w3.org/2000/svg" xmlns:xlink="http://www.w3.org/1999/xlink" x="0px" y="0px"
	 viewBox="0 0 512 512" style="enable-background:new 0 0 512 512;" xml:space="preserve">
<path style="fill:#FFFFFF;" d="M442,336l-85-60l-0.02,0.07v-52.88c0-19.72-2.04-38.86-5.99-57.33L348,166H163l-1.8-0.39
	c-4.07,18.93-6.18,38.62-6.18,58.99v51.589L155,276l-85,60H10v101c101.427,0,390.707,0,492,0V336H442z"/>
<g>
	<path style="fill:#FD3C65;" d="M502,312.22V336h-60v-24.22c0-42.37,11.12-63.28,29.67-75.78l0.09,0.06
		C490.64,248.51,502,269.61,502,312.22z"/>
	<path style="fill:#FD3C65;" d="M350.99,165.86L348,166H163l-1.8-0.39C174.23,105.01,207.38,52.21,256,10
		C304.85,52.42,338.09,105.52,350.99,165.86z"/>
</g>
<path style="fill:#4DBBEB;" d="M256,226c33.14,0,60,26.86,60,60s-26.86,60-60,60s-60-26.86-60-60S222.86,226,256,226z"/>
<path style="fill:#FEC761;" d="M217.52,437h76.96c-4.76,29.86-38.48,65-38.48,65S222.28,466.86,217.52,437z"/>
<path style="fill:#F0F0F0;" d="M256,266c11.03,0,20,8.96,20,20s-8.97,20-20,20s-20-8.96-20-20S244.97,266,256,266z"/>
<path style="fill:#FD3C65;" d="M70,312.22V336H10v-24.22c0-21.18,2.78-37,7.88-49.09S30.4,242.25,39.67,236l0.09,0.06
	C58.64,248.51,70,269.61,70,312.22z"/>
<path d="M196,386c-5.52,0-10,4.48-10,10s4.48,10,10,10s10-4.48,10-10S201.52,386,196,386z"/>
<path d="M477.286,227.725l-0.09-0.06c-3.372-2.236-7.76-2.22-11.114,0.041C442.511,243.591,432,269.519,432,311.78v4.92
	l-65.02-45.896V223.19c0-20.158-2.09-40.15-6.211-59.422v0.001c-13.06-61.082-47.021-116.866-98.213-161.32
	c-3.762-3.266-9.353-3.265-13.112-0.001c-50.988,44.266-84.883,99.959-98.021,161.06c-4.25,19.764-6.404,40.317-6.404,61.092v46.205
	L80,316.701v-4.481c0-42.604-10.713-68.667-34.714-84.494l-0.09-0.06c-3.373-2.237-7.76-2.22-11.117,0.043
	c-11.563,7.796-19.875,17.967-25.413,31.095C2.835,272.629,0,289.957,0,311.78V437c0,5.522,4.478,10,10,10
	c5.254,0,181.281,0,199.597,0c8.917,30.104,37.847,60.527,39.187,61.924c1.887,1.965,4.492,3.076,7.216,3.076
	s5.329-1.111,7.216-3.076c1.339-1.396,30.269-31.819,39.187-61.924c7.973,0,186.226,0,199.597,0c5.522,0,10-4.478,10-10V312.22
	C512,269.616,501.287,243.553,477.286,227.725z M60,427H20v-81h40V427z M60,326H20v-14.22c0-19.101,2.32-33.887,7.094-45.203
	c3.086-7.314,7.186-13.177,12.68-18.049C50.488,257.681,60,273.924,60,312.22V326z M145,427H80v-85.818l65-45.883V427z M256,23.401
	c40.959,37.566,69.185,83.06,82.336,132.599H173.8C186.97,106.366,215.153,60.87,256,23.401z M255.979,486.896
	c-8.339-10.029-19.509-25.383-25.256-39.896h50.591C275.35,462.226,263.607,477.753,255.979,486.896z M346.98,427H165.02V224.6
	c0-16.473,1.465-32.778,4.332-48.6h173.431c2.778,15.396,4.198,31.229,4.198,47.19V427H346.98z M432,427h-65V295.299l65,45.883V427z
	 M492,427h-40v-81h40V427z M492,326h-40v-14.22c0-37.899,9.274-54.104,19.746-63.275C482.472,257.653,492,273.891,492,312.22V326z"
	/>
<path d="M256,216c-38.598,0-70,31.402-70,70s31.402,70,70,70s70-31.402,70-70S294.598,216,256,216z M256,336
	c-27.57,0-50-22.43-50-50s22.43-50,50-50s50,22.43,50,50S283.57,336,256,336z"/>
<path d="M256,256c-16.542,0-30,13.458-30,30s13.458,30,30,30s30-13.458,30-30S272.542,256,256,256z M256,296
	c-5.514,0-10-4.486-10-10s4.486-10,10-10s10,4.486,10,10S261.514,296,256,296z"/>
<path d="M472,206c5.522,0,10-4.478,10-10V76c0-5.522-4.478-10-10-10s-10,4.478-10,10v120C462,201.522,466.478,206,472,206z"/>
<path d="M40,206c5.522,0,10-4.478,10-10V76c0-5.522-4.478-10-10-10s-10,4.478-10,10v120C30,201.522,34.478,206,40,206z"/>
<path d="M316,386h-80c-5.522,0-10,4.478-10,10s4.478,10,10,10h80c5.522,0,10-4.478,10-10S321.522,386,316,386z"/>
<g>
</g>
<g>
</g>
<g>
</g>
<g>
</g>
<g>
</g>
<g>
</g>
<g>
</g>
<g>
</g>
<g>
</g>
<g>
</g>
<g>
</g>
<g>
</g>
<g>
</g>
<g>
</g>
<g>
</g>
</svg>
